<svg xmlns="http://www.w3.org/2000/svg" viewBox="0 0 305.95 359.19"><defs><style>.cls-1{fill:#fff;}.cls-2{stroke:#000;stroke-miterlimit:10;stroke-width:2px;}</style></defs><g id="Layer_2" data-name="Layer 2"><g id="Layer_1-2" data-name="Layer 1"><path class="cls-1" d="M295.47,69.23c-.94,13.35-2.15,26.8-4.78,39.89-4,19.87-8.71,39.65-14.28,59.13-3.47,12.11-8.84,23.72-13.8,35.37a351.63,351.63,0,0,1-36.69,65c-7.89,11.19-16.57,21.88-25.45,32.31-8.23,9.67-17,18.93-25.93,27.94-6.71,6.76-14.09,12.85-21.88,19.86-12.16-11.66-24.5-22.47-35.64-34.4A407.89,407.89,0,0,1,62.42,241a390.11,390.11,0,0,1-32.55-71.89A348.39,348.39,0,0,1,17,119.2c-3.31-18.64-4.43-37.66-6.56-56.51-.35-3.09.94-4.51,4-4.86C36.56,55.3,54.4,45.91,65.42,25.56a102.44,102.44,0,0,1,8.9-13.43,8,8,0,0,1,5.44-3q73.29-.25,146.59,0a8,8,0,0,1,5.39,3.08c7.31,9.78,13.77,20.26,21.65,29.55,8,9.47,19.89,12.69,31.61,15C295.54,58.81,296.22,58.46,295.47,69.23Z"/><path class="cls-2" d="M78,48.64H84.8V31.46H79.55v-2a17,17,0,0,0,6-1.73h2.27V48.64h6.1v2.53H78Z"/><path class="cls-2" d="M99.4,49.15l1.69-1.9a6.93,6.93,0,0,0,4.66,1.83c3.79,0,7.13-2.68,7.13-10.5,0-5.76-2.24-8.85-6.1-8.85a4.84,4.84,0,0,0-5,5.11c0,3.19,1.76,4.95,5,4.95,1.83,0,4.07-.92,6.09-3.3l.11,2.38a9.67,9.67,0,0,1-6.79,3.2c-4.33,0-7.27-2.42-7.27-7.23a7.55,7.55,0,0,1,7.79-7.53c5.1,0,9,3.74,9,11.27,0,9.4-4.74,13-9.8,13A9.45,9.45,0,0,1,99.4,49.15Z"/><path class="cls-2" d="M190.28,39.61c-.84-16.1,17.65-16.1,16.81,0C207.91,55.86,189.46,55.86,190.28,39.61Zm14,0c0-6.72-2.32-9.62-5.58-9.62-7.38-1.45-7.27,20.82,0,19.39C202,49.38,204.27,46.33,204.27,39.61Z"/><path class="cls-2" d="M223.21,35.28c0-1.28.11-2.86.18-4.15h-.18c-.77,1.14-1.62,2.28-2.39,3.42l-6.31,7.93h15.2v2.46H211.13v-2L222.8,28h3.27V51.4h-2.86Z"/><path d="M236.78,0c4.25,7.07,8.64,14.07,12.73,21.24,9.42,16.53,24,24.63,42.51,26.69,4.36.48,8.66,1.49,13.93,2.43-.42,7.65-.74,15.51-1.3,23.36s-.79,15.79-2.16,23.51c-3.18,17.91-6.23,35.9-10.65,53.53a335.38,335.38,0,0,1-33.35,83.57c-10.63,18.79-22.7,36.85-35.1,54.54-13.28,18.94-29.55,35.42-46.23,51.4-5.81,5.57-11.92,10.85-18.07,16.05-4.62,3.89-8,3.88-12.5-.36-13.42-12.51-27.38-24.56-39.81-38A389.72,389.72,0,0,1,55.1,248C41,223.53,28.6,198.25,20.5,171.2c-6.28-20.95-11.21-42.34-15.82-63.73C2.49,97.29,2.31,86.66,1.47,76.21.79,67.68.48,59.12,0,50.47,8.33,49,16,47.8,23.59,46.18,40.15,42.63,50.83,31.63,59,17.6Q64.11,8.8,69.25,0ZM152.66,348.71c7.78-7,15.17-13.1,21.88-19.86,9-9,17.7-18.27,25.93-27.94,8.88-10.44,17.56-21.12,25.45-32.31a352.61,352.61,0,0,0,36.69-65c4.95-11.65,10.33-23.25,13.8-35.36C282,148.76,286.7,129,290.69,109.12c2.63-13.1,3.83-26.54,4.77-39.89.76-10.77.08-10.42-10.46-12.49-11.72-2.31-23.58-5.53-31.61-15-7.88-9.29-14.34-19.77-21.66-29.56-1.15-1.54-3.55-3.07-5.38-3.07q-73.31-.25-146.6,0a8,8,0,0,0-5.43,3,103.22,103.22,0,0,0-8.9,13.44C54.4,45.91,36.56,55.3,14.35,57.83c-3,.35-4.31,1.76-4,4.86,2.12,18.85,3.24,37.87,6.56,56.51a347.07,347.07,0,0,0,12.92,49.91A390.34,390.34,0,0,0,62.41,241,408.14,408.14,0,0,0,117,314.31C128.16,326.24,140.5,337.05,152.66,348.71Z"/><path d="M249.55,69h13.82v87.26H41.21V69.2h14v8.32H64V69.13h14V77.4h9V69.07h13.86V87.66h12v8.7h8.92c.12-2.66.25-5.39.38-8.4l6.8-.4c0-7.86.21-15.78-.1-23.67-.14-3.6,1-5.72,4-7.56,5.86-3.5,11.38-7.57,17.26-11a6.32,6.32,0,0,1,5.47,0c6.33,4,12.48,8.29,18.46,12.78,1.12.83,1.65,3,1.68,4.65C176,70.83,176,79,176,87.42l5.75.6.44,8.48h9.6V88h11.87V69.15h14v8.24h9v-8.3h13.85v8.36h9ZM168.18,96.54V88l5.49-.45V81.07H132.24v6.29l5,.9v8.16h8V88.16h15v8.38ZM58.49,135.29H98.94V127.9H58.49Zm80.78-57.83h26.5v-5.4h-26.5Zm30.91,57.82h19.51v-7.37H170.18Zm36-7.39v7.41h19.26v-7.41Zm22,0v7.39H247.5v-7.39Zm-112.82,7.49h18.43V128H115.33Zm54.81-20.08h19.49V109H170.14Zm55.58-6.3H206.21v6.33h19.51ZM99,108.94H79.5v6.42H99Zm148.58.11H228v6.36h19.52ZM79.3,96.44H98.81V90.13H79.3Zm126.79-6.51v6.54h19.4V89.93Zm41.57.18H228.18v6.22h19.48ZM228,147.77v6.54h19.41v-6.54ZM79.3,154.29H98.82V148H79.3ZM206,154.2h19.52v-6.33H206ZM83.88,106.44V99.07H67.47v7.37Zm137.31-7.51v7.54H237.5V98.93Zm-97,7.48H140.7V99.1H124.18Zm36.44.09V99.13H144.31v7.37Zm2.58-.06h16.42V99.07H163.2ZM133.86,109H115.34v6.37h18.52ZM77,109H58.59v6.38H77Zm.13,38.92H58.63v6.31H77.14Zm0-57.84H58.63v6.31H77.14Zm105,8.88v7.51h15.4V98.92ZM121.87,99H107.46v7.35h14.41ZM240,98.92v7.51h14.4V98.92Zm-88.2,29H137.37v7.37H151.8Zm18.33,25.29h19.53v-5.32H170.13Zm3.64-92.13H159.28v7.42h14.49ZM67.47,137.8v6.54H83.89V137.8Zm73.25,6.56V138h-16.4v6.39Zm3.52-.11h16.52v-6.36H144.24Zm35.48-6.37H163.29v6.38h16.43Zm57.84,0H221.13v6.38h16.43ZM221,125.39h16.43V119H221Zm-57.88-.14h16.51V119H163.16ZM84,119H67.63v6.44H84Zm60.43-.09v6.38h16.34v-6.38Zm-3.7,6.54v-6.38H124.35v6.38Zm-6.82,22.42H115.41v5.4h18.46Zm-69-41.38V99.1H51.54v7.37Zm89.35,21.39v7.47h13.37v-7.47Zm27.88,16.4h15.53v-6.38H182.14Zm0-25.39v6.5h15.37v-6.5ZM132.25,68.41h13.51V61.14H132.25Zm-24.87,56.87h14.35V118.9H107.38Zm132.72-6.37v6.39h14.4v-6.39Zm-102.83-3.57H151.8V109H137.27ZM240,144.23h14.53V137.9H240Zm-132.72.06h14.5V138h-14.5ZM56,135.37V128H43.54v7.38ZM218.75,99.11H206.23v7.2h12.52Zm-132.3-.17v7.47H98.81V98.94ZM84.22,86.55c-.09-2.13-.17-3.84-.25-5.55H67.52v5.55ZM237.6,81H221.1v5.45h16.5ZM65,118.93H51.61v6.38H65Zm89.19-3.51h13.43V109H154.23ZM65,144.41v-6.53H51.61v6.53Zm138.65-16.36H192.18v7.26h11.51Zm46.42-.2v7.54h11.33v-7.54ZM98.86,125.39V119H86.4v6.39Zm119.73.06V119H206.21v6.49ZM55.93,154.35V148H43.58v6.38ZM56.05,109H43.7v6.42H56.05ZM206,144.23h12.51V138H206ZM86.42,137.8v6.53H98.85V137.8ZM55.9,96.54V90H43.6v6.55ZM240,86.49h14.4V81.12H240ZM137.25,153.23h14.54v-5.37H137.25Zm-35.73-25.38v7.54h10.33v-7.54ZM249.83,96.36h11.52V90.15H249.83Zm-82.2,57V148H154.25v5.39Zm94-5.47H250.09v6.32h11.53ZM192,115.39h11.54v-6.32H192ZM65,81.05H51.62v5.36H65Zm196.38,34.36V109H250v6.38ZM206,86.38h12.54V81.07H206Zm-119.74.08H98.8v-5.3H86.29ZM112,109.09H101.42v6.29H112Zm80.14,44.22h11.47v-5.39H192.1ZM112,148H101.42v5.59H112Zm43.65-79.25V61.17H149.4v7.56Zm105.75,37.79V98.61L257,99.1v7.42Zm-217.94-.13H48V98.61l-4.54.5ZM173.6,77.59V72h-5.36v5.56ZM48,144.36v-6.7l-4.36.23v6.47Zm213.51-25.79L257,119v6.34h4.57ZM261.6,138H257v6.61l4.57-.39ZM43.65,118.88v6.87l4.48-.46c0-2.22,0-4,0-5.84,0-.13-.21-.25-.49-.57Zm57.47-12.71c4.55.28,4.71-.1,3.41-7.5C98.46,99.24,102.34,103.71,101.12,106.17ZM256.9,86.86l4.56-.45V81.07H256.9ZM43.25,81l.31,5.71,4.38-.23V81Zm93.59-8.74c-6.06-1.71-4.81,2-4.44,5.53l4.44-.33Zm-31,65.35c-7.1.22-3.8,4.29-4.44,6.82C107.62,145,104.09,140.5,105.79,137.62ZM105,119c-4.55-1.22-4.06,1.75-3.68,3.89.2,1.16,1.69,2.1,2.59,3.14l1.09-1Z"/><path d="M47.37,176.3c1.42-2.32,2.27-5.26,4.21-6.57a7.93,7.93,0,0,1,10.7,1.48c5.58,6.39,10.62,13.26,15.88,19.93,9.59,12.18,19,24.53,28.86,36.48a239.31,239.31,0,0,0,20.68,22.59c13.13,12.27,25.93,25.09,42.21,33.41a38.52,38.52,0,0,0,8.61,3.32c6.43,1.51,8.86-4.3,12.71-7.47s6.94-7.6,12.81-7.24c4.51.28,6.94,3.91,4.47,7.56-6.37,9.39-14.66,15.83-26.46,17.51-10.76,1.53-19.58-3.17-27.53-8.6-13.85-9.46-27-20-40-30.65-17.83-14.53-31.95-32.53-45.82-50.69Q59.8,195.71,51.21,183.8C49.73,181.75,48.86,179.26,47.37,176.3Z"/><path d="M157.56,270.59c17.55-15.18,34-30.43,47.51-48.58,12.69-17,26-33.55,39.08-50.25,2.5-3.19,9.56-4,12.57-1.71s3.69,8.2.94,11.9c-10.31,13.87-20.56,27.79-31.37,41.28a272.62,272.62,0,0,1-24,26.83c-9.93,9.5-20.87,17.94-31.55,26.62-1,.8-3.6.56-4.91-.16C163,274.91,160.41,272.67,157.56,270.59Z"/><path d="M155.36,182.73h9.5v12.36h13V182.73h10.68v33.36h-10.5V202.8H165v13.36h-9.68Z"/><path d="M128.91,201.62v14.54h-9.44V182.82H129v15c3.94-5,7.09-8.85,10.12-12.8,3.47-4.54,8-1.81,13.24-2.59-4,4.49-7.19,8.21-10.58,11.71-1.82,1.87-2.16,3.11-.34,5.39,4.11,5.15,7.8,10.64,12.28,16.85-4.73,0-8.49.26-12.18-.14-1.27-.13-2.6-1.72-3.49-2.94-2.88-3.95-5.56-8-8.32-12.07Z"/><path d="M150.23,291.55c-6.86,2.2-13.66,5.91-20.6,6.18a30.23,30.23,0,0,1-21.79-8.36c-2.3-2.16-4.45-4.48-6.71-6.68s-4.63-5.81-2.24-8.09c1.92-1.84,6.39-2.14,9.33-1.44,2.56.6,4.59,3.51,6.78,5.48,1.48,1.33,2.81,2.83,4.25,4.21,4,3.81,8.68,5.79,13.64,2.83,6-3.54,10.36-1.76,14.68,2.51a18,18,0,0,0,2.32,1.7Z"/><path d="M153,243.32c4.67,0,8.2,3.25,7.87,7.93-.39,5.45-3.35,8-8.41,8.1s-7.64-3.75-8.24-7.86C143.58,246.81,147.67,243.32,153,243.32Z"/><path class="cls-1" d="M168.18,96.54h-8V88.16h-15v8.26h-8V88.26l-5-.9V81.07h41.43v6.44l-5.49.45Z"/><path class="cls-1" d="M58.49,135.29V127.9H98.94v7.39Z"/><path class="cls-1" d="M139.27,77.46v-5.4h26.5v5.4Z"/><path class="cls-1" d="M170.18,135.28v-7.37h19.51v7.37Z"/><path class="cls-1" d="M206.16,127.89h19.26v7.41H206.16Z"/><path class="cls-1" d="M228.15,127.87H247.5v7.39H228.15Z"/><path class="cls-1" d="M115.33,135.36V128h18.43v7.38Z"/><path class="cls-1" d="M170.14,115.28V109h19.49v6.27Z"/><path class="cls-1" d="M225.72,109v6.33H206.21V109Z"/><path class="cls-1" d="M99,108.94v6.42H79.5v-6.42Z"/><path class="cls-1" d="M247.55,109.05v6.36H228v-6.36Z"/><path class="cls-1" d="M79.3,96.44V90.13H98.81v6.31Z"/><path class="cls-1" d="M206.09,89.93h19.4v6.54h-19.4Z"/><path class="cls-1" d="M247.66,90.11v6.22H228.18V90.11Z"/><path class="cls-1" d="M228,147.77h19.41v6.54H228Z"/><path class="cls-1" d="M79.3,154.29V148H98.82v6.33Z"/><path class="cls-1" d="M206,154.2v-6.33h19.52v6.33Z"/><path class="cls-1" d="M83.88,106.44H67.47V99.07H83.88Z"/><path class="cls-1" d="M221.19,98.93H237.5v7.54H221.19Z"/><path class="cls-1" d="M124.18,106.41V99.1H140.7v7.31Z"/><path class="cls-1" d="M160.62,106.5H144.31V99.13h16.31Z"/><path class="cls-1" d="M163.2,106.44V99.07h16.42v7.37Z"/><path class="cls-1" d="M133.86,109v6.37H115.34V109Z"/><path class="cls-1" d="M77,109v6.38H58.59V109Z"/><path class="cls-1" d="M77.14,147.88v6.31H58.63v-6.31Z"/><path class="cls-1" d="M77.14,90v6.31H58.63V90Z"/><path class="cls-1" d="M182.16,98.92h15.4v7.51h-15.4Z"/><path class="cls-1" d="M121.87,99v7.35H107.46V99Z"/><path class="cls-1" d="M240,98.92h14.4v7.51H240Z"/><path class="cls-1" d="M151.8,127.91v7.37H137.37v-7.37Z"/><path class="cls-1" d="M170.13,153.2v-5.32h19.53v5.32Z"/><path class="cls-1" d="M173.77,61.07v7.42H159.28V61.07Z"/><path class="cls-1" d="M67.47,137.8H83.89v6.54H67.47Z"/><path class="cls-1" d="M140.72,144.36h-16.4V138h16.4Z"/><path class="cls-1" d="M144.24,144.25v-6.36h16.52v6.36Z"/><path class="cls-1" d="M179.72,137.88v6.38H163.29v-6.38Z"/><path class="cls-1" d="M237.56,137.88v6.38H221.13v-6.38Z"/><path class="cls-1" d="M221,125.39V119h16.43v6.38Z"/><path class="cls-1" d="M163.16,125.25V119h16.51v6.27Z"/><path class="cls-1" d="M84,119v6.44H67.63V119Z"/><path class="cls-1" d="M144.39,118.89h16.34v6.38H144.39Z"/><path class="cls-1" d="M140.69,125.43H124.35v-6.38h16.34Z"/><path class="cls-1" d="M133.87,147.85v5.4H115.41v-5.4Z"/><path class="cls-1" d="M64.91,106.47H51.54V99.1H64.91Z"/><path class="cls-1" d="M154.26,127.86h13.37v7.47H154.26Z"/><path class="cls-1" d="M182.14,144.26v-6.38h15.53v6.38Z"/><path class="cls-1" d="M182.18,118.87h15.37v6.5H182.18Z"/><path class="cls-1" d="M132.25,68.41V61.14h13.51v7.27Z"/><path class="cls-1" d="M107.38,125.28V118.9h14.35v6.38Z"/><path class="cls-1" d="M240.1,118.91h14.4v6.39H240.1Z"/><path class="cls-1" d="M137.27,115.34V109H151.8v6.38Z"/><path class="cls-1" d="M240,144.23V137.9h14.53v6.33Z"/><path class="cls-1" d="M107.23,144.29V138h14.5v6.27Z"/><path class="cls-1" d="M56,135.37H43.54V128H56Z"/><path class="cls-1" d="M218.75,99.11v7.2H206.23v-7.2Z"/><path class="cls-1" d="M86.45,98.94H98.81v7.47H86.45Z"/><path class="cls-1" d="M84.22,86.55H67.52V81H84C84.05,82.71,84.13,84.42,84.22,86.55Z"/><path class="cls-1" d="M237.6,81v5.45H221.1V81Z"/><path class="cls-1" d="M65,118.93v6.38H51.61v-6.38Z"/><path class="cls-1" d="M154.23,115.42V109h13.43v6.38Z"/><path class="cls-1" d="M65,144.41H51.61v-6.53H65Z"/><path class="cls-1" d="M203.69,128.05v7.26H192.18v-7.26Z"/><path class="cls-1" d="M250.11,127.85h11.33v7.54H250.11Z"/><path class="cls-1" d="M98.86,125.39H86.4V119H98.86Z"/><path class="cls-1" d="M218.59,125.45H206.21V119h12.38Z"/><path class="cls-1" d="M55.93,154.35H43.58V148H55.93Z"/><path class="cls-1" d="M56.05,109v6.42H43.7V109Z"/><path class="cls-1" d="M206,144.23V138h12.51v6.21Z"/><path class="cls-1" d="M86.42,137.8H98.85v6.53H86.42Z"/><path class="cls-1" d="M55.9,96.54H43.6V90H55.9Z"/><path class="cls-1" d="M240,86.49V81.12h14.4v5.37Z"/><path class="cls-1" d="M137.25,153.23v-5.37h14.54v5.37Z"/><path class="cls-1" d="M101.52,127.85h10.33v7.54H101.52Z"/><path class="cls-1" d="M249.83,96.36V90.15h11.52v6.21Z"/><path class="cls-1" d="M167.63,153.35H154.25V148h13.38Z"/><path class="cls-1" d="M261.62,147.88v6.32H250.09v-6.32Z"/><path class="cls-1" d="M192,115.39v-6.32h11.54v6.32Z"/><path class="cls-1" d="M65,81.05v5.36H51.62V81.05Z"/><path class="cls-1" d="M261.41,115.41H250V109h11.46Z"/><path class="cls-1" d="M206,86.38V81.07h12.54v5.31Z"/><path class="cls-1" d="M86.29,86.46v-5.3H98.8v5.3Z"/><path class="cls-1" d="M112,109.09v6.29H101.42v-6.29Z"/><path class="cls-1" d="M192.1,153.31v-5.39h11.47v5.39Z"/><path class="cls-1" d="M112,148v5.59H101.42V148Z"/><path class="cls-1" d="M155.61,68.73H149.4V61.17h6.21Z"/><path class="cls-1" d="M261.36,106.52H257V99.1l4.37-.49Z"/><path class="cls-1" d="M43.42,106.39V99.11l4.54-.5v7.78Z"/><path class="cls-1" d="M173.6,77.59h-5.36V72h5.36Z"/><path class="cls-1" d="M48,144.36H43.67v-6.47l4.36-.23Z"/><path class="cls-1" d="M261.54,118.57v6.79H257V119Z"/><path class="cls-1" d="M261.6,138v6.22l-4.57.39V138Z"/><path class="cls-1" d="M43.65,118.88h4c.28.32.48.44.49.57,0,1.81,0,3.62,0,5.84l-4.48.46Z"/><path class="cls-1" d="M101.12,106.17c1.22-2.46-2.66-6.93,3.41-7.5C105.83,106.07,105.67,106.45,101.12,106.17Z"/><path class="cls-1" d="M256.9,86.86V81.07h4.56v5.34Z"/><path class="cls-1" d="M43.25,81h4.69v5.48l-4.38.23Z"/><path class="cls-1" d="M136.84,72.27v5.2l-4.44.33C132,74.25,130.78,70.56,136.84,72.27Z"/><path class="cls-1" d="M105.79,137.62c-1.7,2.88,1.83,7.37-4.44,6.82C102,141.91,98.69,137.84,105.79,137.62Z"/><path class="cls-1" d="M105,119v6l-1.09,1c-.9-1-2.39-2-2.59-3.14C100.91,120.76,100.42,117.79,105,119Z"/></g></g></svg>